<svg width="32" height="32" viewBox="0 0 32 32" fill="none" xmlns="http://www.w3.org/2000/svg">
<path d="M30.3705 19.2819C32.2436 11.3459 27.3286 3.39408 19.3926 1.52101C11.4566 -0.352051 3.50478 4.56292 1.63172 12.4989C-0.241346 20.4349 4.67363 28.3867 12.6096 30.2598C20.5456 32.1328 28.4974 27.2179 30.3705 19.2819Z" stroke="black" stroke-width="1.58259" stroke-linecap="round" stroke-linejoin="round"/>
<path d="M8.04736 12.4564C8.04736 12.1983 8.12388 11.9461 8.26725 11.7315C8.41061 11.5169 8.61438 11.3497 8.85278 11.251C9.09119 11.1522 9.35353 11.1264 9.60662 11.1767C9.85971 11.2271 10.0922 11.3513 10.2747 11.5338C10.4571 11.7163 10.5814 11.9487 10.6317 12.2018C10.6821 12.4549 10.6562 12.7173 10.5575 12.9557C10.4587 13.1941 10.2915 13.3978 10.0769 13.5412C9.86238 13.6846 9.61013 13.7611 9.35208 13.7611C9.00605 13.7611 8.67419 13.6236 8.42951 13.3789C8.18482 13.1343 8.04736 12.8024 8.04736 12.4564Z" fill="black"/>
<path d="M21.356 12.4564C21.356 12.1983 21.4325 11.9461 21.5758 11.7315C21.7192 11.5169 21.923 11.3497 22.1614 11.251C22.3998 11.1522 22.6621 11.1264 22.9152 11.1767C23.1683 11.2271 23.4008 11.3513 23.5832 11.5338C23.7657 11.7163 23.89 11.9487 23.9403 12.2018C23.9907 12.4549 23.9648 12.7173 23.8661 12.9557C23.7673 13.1941 23.6001 13.3978 23.3855 13.5412C23.171 13.6846 22.9187 13.7611 22.6607 13.7611C22.3146 13.7611 21.9828 13.6236 21.7381 13.3789C21.4934 13.1343 21.356 12.8024 21.356 12.4564Z" fill="black"/>
<path d="M23.9454 18.3641C23.4175 20.0567 22.3625 21.5363 20.9343 22.587C19.5061 23.6376 17.7795 24.2043 16.0064 24.2043C14.2334 24.2043 12.5068 23.6376 11.0786 22.587C9.65038 21.5363 8.59536 20.0567 8.0675 18.3641" stroke="black" stroke-width="1.58259" stroke-linecap="round" stroke-linejoin="round"/>
<path d="M8.69868 17.9995L7.1853 18.726" stroke="black" stroke-width="1.58259" stroke-linecap="round" stroke-linejoin="round"/>
<path d="M23.3145 17.9995L24.8278 18.726" stroke="black" stroke-width="1.58259" stroke-linecap="round" stroke-linejoin="round"/>
</svg>
