<svg width="27" height="26" viewBox="0 0 27 26" fill="none" xmlns="http://www.w3.org/2000/svg">
<g clip-path="url(#clip0_1_98)">
<path d="M13.5736 3.75842C12.7031 3.75842 11.991 4.47059 11.991 5.34102C11.991 6.21144 12.7031 6.92361 13.5736 6.92361C14.444 6.92361 15.1562 6.21144 15.1562 5.34102C15.1562 4.47059 14.444 3.75842 13.5736 3.75842ZM13.5736 19.5844C12.7031 19.5844 11.991 20.2965 11.991 21.1669C11.991 22.0374 12.7031 22.7495 13.5736 22.7495C14.444 22.7495 15.1562 22.0374 15.1562 21.1669C15.1562 20.2965 14.444 19.5844 13.5736 19.5844ZM13.5736 11.6714C12.7031 11.6714 11.991 12.3836 11.991 13.254C11.991 14.1244 12.7031 14.8366 13.5736 14.8366C14.444 14.8366 15.1562 14.1244 15.1562 13.254C15.1562 12.3836 14.444 11.6714 13.5736 11.6714Z" fill="black"/>
</g>
<defs>
<clipPath id="clip0_1_98">
<rect width="25.3215" height="25.3215" fill="white" transform="translate(0.912964 0.593246)"/>
</clipPath>
</defs>
</svg>
